<?xml version="1.0" encoding="UTF-8"?>
<!DOCTYPE svg PUBLIC "-//W3C//DTD SVG 1.1//EN" "http://www.w3.org/Graphics/SVG/1.1/DTD/svg11.dtd">
<!-- Creator: CorelDRAW 2020 (64-Bit) -->
<svg xmlns="http://www.w3.org/2000/svg" xml:space="preserve" width="74.5492mm" height="22.7033mm" version="1.1" style="shape-rendering:geometricPrecision; text-rendering:geometricPrecision; image-rendering:optimizeQuality; fill-rule:evenodd; clip-rule:evenodd"
viewBox="0 0 3655.88 1113.36"
 xmlns:xlink="http://www.w3.org/1999/xlink"
 xmlns:xodm="http://www.corel.com/coreldraw/odm/2003">
 <defs>
  <style type="text/css">
   <![CDATA[
    .fil0 {fill:#1c0527;fill-rule:nonzero}
    .fil1 {fill:url(#id0)}
   ]]>
  </style>
  <linearGradient id="id0" gradientUnits="userSpaceOnUse" x1="-0" y1="556.68" x2="1651.68" y2="556.68">
   <stop offset="0" style="stop-opacity:1; stop-color:#5D2E8A"/>
   <stop offset="1" style="stop-opacity:1; stop-color:#3298DA"/>
  </linearGradient>
 </defs>
 <g id="Layer_x0020_1">
  <metadata id="CorelCorpID_0Corel-Layer"/>
  <path class="fil0" d="M2019.66 688.85c-66.53,0 -120.66,-54.13 -120.66,-120.66 0,-66.52 54.13,-120.63 120.66,-120.63 66.52,0 120.66,54.11 120.66,120.63 0,66.53 -54.14,120.66 -120.66,120.66zm0 -388.36c-43.42,0 -84.39,10.38 -120.66,28.77l0 -162.07 -76.21 0c-39.14,0 -70.84,31.72 -70.84,70.9l0 585.36 73.53 0c22.43,0 42.5,-10.1 55.99,-25.92 40.32,24.35 87.6,38.4 138.19,38.4 147.87,0 267.71,-119.86 267.71,-267.74 0,-147.84 -119.83,-267.7 -267.71,-267.7z"/>
  <g id="_2365059367008">
   <polygon class="fil0" points="2367.28,835.92 2514.36,835.92 2514.36,326.28 2367.28,326.28 "/>
   <path class="fil0" d="M2513.62 253.46c0,-40.23 -32.59,-72.78 -72.78,-72.78l-72.85 0 0 105.72 145.63 0 0 -32.94z"/>
  </g>
  <path class="fil0" d="M2741.35 835.92l-147.08 0 0 -655.25 73.99 0c40.35,0 73.08,32.7 73.08,73.05l0 582.2z"/>
  <path class="fil0" d="M3619.07 702.52c-19.49,0 -35.27,-15.82 -35.27,-35.32l0 -195.39c39.55,-0.98 71.33,-33.3 71.33,-73.06l0 -73.17 -71.33 0 0 -71.4c0,-40.61 -32.94,-73.53 -73.55,-73.53l-73.53 0 0 521.87c0,73.67 59.74,133.41 133.41,133.41l85.75 0 0 -133.41 -36.8 0z"/>
  <path class="fil1" d="M104.28 0l159.37 0 29.75 52.45 28.55 -52.45 1329.72 0 0 1003.06 -497.41 0 0 -22.03 0 -119.18 0 -25.93 130.36 0c144.29,0 261.25,-116.95 261.25,-261.25l0 0c0,-144.28 -116.96,-261.25 -261.25,-261.25l-63.57 0c-144.28,0 -261.25,116.97 -261.25,261.25l0 261.25 0.18 0 0 123.08 0 22.03 0 22.03 194.25 0 0 13.17c0,53.64 -43.5,97.14 -97.14,97.14l0 0c-53.65,0 -97.15,-43.49 -97.15,-97.14l0 -13.17 -638.07 0 -29.76 -52.45 -28.54 52.45 -159.31 0c-57.22,0 -104.28,-46.92 -104.28,-104.28l0 -178.23c120.94,0 218.99,-98.06 218.99,-219 0,-120.95 -98.05,-219 -218.99,-219l0 -178.28c0,-57.36 46.93,-104.28 104.28,-104.28zm549.45 823.83c20.47,-6.92 51.68,-27.06 78.9,-68.56l0 0c0,37.87 30.69,68.56 68.56,68.56l78.51 0 0 -291.06 0.21 -14.97c0,3.12 -0.08,6.32 -0.21,9.52 0,2.09 0,3.75 0,4.67l0 -4.67c0,-1.47 0,-3.09 0,-4.95l0 -208.47 -72.28 0c-41.29,0 -74.79,33.5 -74.79,74.78l0 199.06c0,51.24 -43.27,92.53 -95.16,89.29 -47.76,-3.01 -83.74,-45.02 -83.74,-92.81l0 -269.88c0,-0.24 -0.17,-0.45 -0.42,-0.45l-146.22 0c-0.17,0.18 -0.26,0.26 -0.43,0.45l-0.39 275.76c0,190.5 110.65,280.23 247.46,233.72zm617.89 -141.26l-145.41 0 0 -107.9c0,-59.5 48.4,-107.89 107.89,-107.89l37.52 0c59.49,0 107.89,48.39 107.89,107.89 0,59.49 -48.41,107.9 -107.89,107.9z"/>
  <path class="fil0" d="M2973.71 532.56c15.23,-49.17 61.17,-85.01 115.26,-85.01 54.14,0 100.03,35.84 115.26,85.01l-230.52 0zm188.26 131.72c-20.26,15.42 -45.52,24.58 -72.88,24.58 -44.74,0 -95.36,-28.14 -108.68,-72.87l372.17 0c2.3,-12.85 3.7,-26.03 4.1,-39.45l-0.01 -8.35c0,-153.47 -129.19,-276.83 -284.76,-267.17 -133.35,8.29 -241.85,116.79 -250.11,250.09 -1.97,31.6 1.54,62.11 9.69,90.67l0.14 0c33.44,117.25 144.8,201.68 274.51,193.63 105.72,-6.57 195.81,-76.15 232.72,-171.12l-176.9 0z"/>
 </g>
</svg>
