<?xml version="1.0" encoding="UTF-8"?>
<!DOCTYPE svg PUBLIC "-//W3C//DTD SVG 1.1//EN" "http://www.w3.org/Graphics/SVG/1.1/DTD/svg11.dtd">
<!-- Creator: CorelDRAW 2020 (64-Bit) -->
<svg xmlns="http://www.w3.org/2000/svg" xml:space="preserve" width="33.7102mm" height="10.2662mm" version="1.1" style="shape-rendering:geometricPrecision; text-rendering:geometricPrecision; image-rendering:optimizeQuality; fill-rule:evenodd; clip-rule:evenodd"
viewBox="0 0 1134.74 345.58"
 xmlns:xlink="http://www.w3.org/1999/xlink"
 xmlns:xodm="http://www.corel.com/coreldraw/odm/2003">
 <defs>
  <style type="text/css">
   <![CDATA[
    .fil1 {fill:white}
    .fil0 {fill:white;fill-rule:nonzero}
   ]]>
  </style>
 </defs>
 <g id="Layer_x0020_1">
  <metadata id="CorelCorpID_0Corel-Layer"/>
  <g id="_2364992919584">
   <path class="fil0" d="M626.88 213.81c-20.65,0 -37.46,-16.8 -37.46,-37.45 0,-20.65 16.8,-37.44 37.46,-37.44 20.65,0 37.45,16.79 37.45,37.44 0,20.65 -16.8,37.45 -37.45,37.45zm0 -120.54c-13.48,0 -26.19,3.22 -37.46,8.93l0 -50.31 -23.65 0c-12.15,0 -21.99,9.85 -21.99,22.01l0 181.69 22.82 0c6.96,0 13.19,-3.13 17.38,-8.05 12.52,7.56 27.19,11.92 42.89,11.92 45.9,0 83.09,-37.2 83.09,-83.1 0,-45.89 -37.2,-83.09 -83.09,-83.09z"/>
   <g>
    <polygon class="fil0" points="734.78,259.46 780.43,259.46 780.43,101.28 734.78,101.28 "/>
    <path class="fil0" d="M780.2 78.67c0,-12.49 -10.12,-22.59 -22.59,-22.59l-22.61 0 0 32.81 45.2 0 0 -10.22z"/>
   </g>
   <path class="fil0" d="M850.88 259.46l-45.65 0 0 -203.38 22.97 0c12.52,0 22.68,10.15 22.68,22.67l0 180.71z"/>
   <path class="fil0" d="M1123.31 218.06c-6.05,0 -10.95,-4.91 -10.95,-10.97l0 -60.65c12.27,-0.3 22.14,-10.33 22.14,-22.67l0 -22.71 -22.14 0 0 -22.16c0,-12.6 -10.23,-22.82 -22.83,-22.82l-22.82 0 0 161.98c0,22.86 18.54,41.41 41.41,41.41l26.62 0 0 -41.41 -11.42 0z"/>
   <path class="fil1" d="M32.37 0l49.47 0 9.24 16.28 8.86 -16.28 412.73 0 0 311.34 -154.39 0 0 -6.84 0 -36.99 0 -8.05 40.46 0c44.79,0 81.09,-36.3 81.09,-81.09l0 0c0,-44.78 -36.3,-81.09 -81.09,-81.09l-19.73 0c-44.78,0 -81.09,36.3 -81.09,81.09l0 81.09 0.05 0 0 38.2 0 6.84 0 6.84 -198.06 0 -9.24 -16.28 -8.86 16.28 -49.45 0c-17.76,0 -32.37,-14.57 -32.37,-32.37l0 -55.32c37.54,0 67.97,-30.44 67.97,-67.98 0,-37.54 -30.43,-67.97 -67.97,-67.97l0 -55.34c0,-17.8 14.57,-32.37 32.37,-32.37zm170.54 255.71c6.36,-2.15 16.04,-8.4 24.49,-21.28l0 0c0,11.75 9.53,21.28 21.28,21.28l24.37 0 0 -90.34 0.06 -4.65c0,0.97 -0.02,1.96 -0.06,2.96 0,0.65 0,1.16 0,1.45l0 -1.45c0,-0.45 0,-0.96 0,-1.53l0 -64.71 -22.44 0c-12.81,0 -23.21,10.4 -23.21,23.21l0 61.79c0,15.9 -13.43,28.72 -29.53,27.71 -14.83,-0.94 -25.99,-13.97 -25.99,-28.81l0 -83.77c0,-0.07 -0.05,-0.14 -0.13,-0.14l-45.39 0c-0.05,0.05 -0.08,0.08 -0.13,0.14l-0.12 85.59c0,59.13 34.35,86.98 76.81,72.54zm191.79 -43.85l-45.14 0 0 -33.49c0,-18.47 15.02,-33.49 33.49,-33.49l11.65 0c18.46,0 33.49,15.02 33.49,33.49 0,18.46 -15.02,33.49 -33.49,33.49z"/>
   <path class="fil0" d="M358.26 315.43l0 -4.09 -60.3 0 0 4.09c0,16.65 13.5,30.15 30.15,30.15l0 0c16.65,0 30.15,-13.5 30.15,-30.15z"/>
   <path class="fil0" d="M923 165.3c4.73,-15.26 18.99,-26.39 35.78,-26.39 16.8,0 31.05,11.13 35.78,26.39l-71.55 0zm58.43 40.88c-6.29,4.79 -14.13,7.63 -22.62,7.63 -13.89,0 -29.6,-8.73 -33.73,-22.62l115.52 0c0.72,-3.99 1.15,-8.08 1.28,-12.25l-0 -2.59c0,-47.64 -40.1,-85.92 -88.39,-82.93 -41.39,2.57 -75.07,36.25 -77.63,77.62 -0.61,9.81 0.48,19.28 3.01,28.14l0.04 0c10.38,36.39 44.94,62.6 85.21,60.1 32.81,-2.04 60.78,-23.64 72.23,-53.11l-54.91 0z"/>
  </g>
 </g>
</svg>
